<svg width="800" height="600" viewBox="0 0 800 600" xmlns="http://www.w3.org/2000/svg">
  <defs>
    <linearGradient id="goldGradient" x1="0%" y1="0%" x2="100%" y2="100%">
      <stop offset="0%" stop-color="#E5C986" />
      <stop offset="25%" stop-color="#CFA355" />
      <stop offset="50%" stop-color="#F2D087" />
      <stop offset="75%" stop-color="#A67C00" />
      <stop offset="100%" stop-color="#E5C986" />
    </linearGradient>
    
    <linearGradient id="blueGradient" x1="100%" y1="0%" x2="0%" y2="100%">
      <stop offset="0%" stop-color="#003366" />
      <stop offset="35%" stop-color="#0055A4" />
      <stop offset="65%" stop-color="#001F3F" />
      <stop offset="100%" stop-color="#003366" />
    </linearGradient>
    
    <filter id="dropShadow" x="-50%" y="-50%" width="200%" height="200%">
      <feGaussianBlur in="SourceAlpha" stdDeviation="10" result="blur" />
      <feOffset in="blur" dx="0" dy="5" result="offsetBlur" />
      <feFlood flood-color="#000000" flood-opacity="0.3" result="shadowColor" />
      <feComposite in="shadowColor" in2="offsetBlur" operator="in" result="shadow" />
      <feMerge>
        <feMergeNode in="shadow" />
        <feMergeNode in="SourceGraphic" />
      </feMerge>
    </filter>
  </defs>

  <rect width="100%" height="100%" fill="#4b5563" />
  
  <g transform="translate(400 300)">
    <circle cx="0" cy="0" r="220" fill="#FFFFFF" filter="url(#dropShadow)" />
    
    <g transform="translate(-130 -130) scale(0.8)">
      <path d="M 20,20 L 80,20 L 130,180 L 80,180 L 50,80 L 50,280 L 0,280 L 0,20 Z" fill="url(#blueGradient)" />
      
      <path d="M 280,50 C 200,50 150,120 150,200 C 150,280 200,350 280,350 L 330,300 C 250,300 220,250 220,200 C 220,150 250,100 330,100 L 280,50 Z" fill="url(#goldGradient)" />
      
      <path d="M 80,20 C 120,20 160,100 180,180 L 230,80 L 280,80 L 200,280 L 150,280 C 130,200 100,100 80,20 Z" fill="url(#goldGradient)" opacity="0.95" />
      
      <path d="M 330,100 C 360,100 380,120 380,150 L 330,150 C 330,130 320,120 310,120 L 330,100 Z" fill="url(#blueGradient)" />
      <path d="M 330,300 C 360,300 380,280 380,250 L 330,250 C 330,270 320,280 310,280 L 330,300 Z" fill="url(#blueGradient)" />
    </g>
  </g>
</svg>